Coordinates
version=1
nRows=18
nColumns=22
inDegrees=yes

Units are S.I. units (second, meters, Newtons, ...)
If the header above contains a line with 'inDegrees', this indicates whether rotational values are in degrees (yes) or radians (no).

endheader
time	pelvis_tilt	pelvis_list	pelvis_rotation	pelvis_tx	pelvis_ty	pelvis_tz	hip_flexion_r	hip_adduction_r	hip_rotation_r	knee_angle_r	ankle_angle_r	subtalar_angle_r	hip_flexion_l	hip_adduction_l	hip_rotation_l	knee_angle_l	ankle_angle_l	subtalar_angle_l	lumbar_extension	lumbar_bending	lumbar_rotation
      2.64000000	      5.50607964	     -0.54314680	     -9.01901848	     -0.14315070	      0.92336889	      0.75203941	     -8.51102407	     -3.11293599	      1.53552321	    -49.71897764	    -11.68310307	     11.62733108	     14.88629868	      3.70853883	    -13.43560005	    -32.35481316	     20.77611945	    -19.63736722	    -12.70191338	     -0.61103064	     -0.99610087
      2.65000000	      5.55134316	     -0.53757672	     -8.93162090	     -0.13399676	      0.92499881	      0.75098981	     -6.45105573	     -3.33131723	      1.63922528	    -52.10036700	    -11.07858317	     11.37352500	     13.83548360	      3.89901933	    -13.60680995	    -31.66939636	     21.05971175	    -19.17765800	    -12.87922318	     -0.60583744	     -1.33148495
      2.66000000	      5.56880104	     -0.55508901	     -8.76517403	     -0.12492919	      0.92658466	      0.74982564	     -4.37739756	     -3.46569235	      1.73974180	    -54.19882580	    -10.32890655	     10.91533530	     12.80257234	      4.08692696	    -13.67306785	    -30.93888897	     21.24959109	    -18.66476570	    -13.02827831	     -0.54741430	     -1.76068115
      2.67000000	      5.61295617	     -0.60268858	     -8.50705555	     -0.11595664	      0.92816988	      0.74850830	     -2.35706139	     -3.54855176	      1.76368998	    -56.01026136	     -9.52789537	     10.29911819	     11.75285791	      4.27188110	    -13.60873427	    -30.21750101	     21.46822864	    -18.17678774	    -13.22204119	     -0.44284792	     -2.18248248
      2.68000000	      5.67325069	     -0.66444606	     -8.16052371	     -0.10697717	      0.92977653	      0.74707503	     -0.41401081	     -3.58124223	      1.75566011	    -57.49402816	     -8.64021008	      9.67350218	     10.67379020	      4.45455614	    -13.46839431	    -29.46840300	     21.65966487	    -17.78336069	    -13.42028629	     -0.30564102	     -2.68720843
      2.69000000	      5.74179513	     -0.75049393	     -7.72248165	     -0.09797956	      0.93139054	      0.74551854	      1.44711967	     -3.55904456	      1.70222273	    -58.64436109	     -7.67009044	      9.03058206	      9.57545412	      4.62346273	    -13.21594406	    -28.69919202	     21.82731374	    -17.42550665	    -13.61341450	     -0.12329218	     -3.23230220
      2.70000000	      5.82058655	     -0.86373150	     -7.20232423	     -0.08892052	      0.93300428	      0.74387295	      3.21104483	     -3.49011386	      1.59757341	    -59.45326852	     -6.63643035	      8.30160996	      8.45153567	      4.75898340	    -12.89081400	    -27.91488306	     22.01328386	    -17.05744939	    -13.79327035	      0.10177885	     -3.81560446
      2.71000000	      5.90836962	     -0.99575194	     -6.60590173	     -0.07984694	      0.93460398	      0.74212826	      4.88156333	     -3.38386769	      1.45409437	    -59.93502675	     -5.49856616	      7.68599427	      7.31171599	      4.87442585	    -12.45102728	    -27.11701971	     22.12357608	    -16.71662875	    -13.96482890	      0.36076417	     -4.40167074
      2.72000000	      6.00693023	     -1.14536828	     -5.96294359	     -0.07074860	      0.93614806	      0.74035052	      6.45946818	     -3.24677828	      1.28734693	    -60.10293811	     -4.30102392	      7.04135473	      6.16133768	      4.94722735	    -11.98723198	    -26.32907325	     22.28793065	    -16.34161289	    -14.12726052	      0.64236654	     -4.99620431
      2.73000000	      6.09560564	     -1.29173633	     -5.25970926	     -0.06163283	      0.93760503	      0.73848866	      7.96416782	     -3.11691186	      1.06463159	    -59.96453675	     -3.07923817	      6.60314285	      5.02073727	      5.00921360	    -11.43933876	    -25.53067123	     22.36829949	    -15.99739721	    -14.25325613	      0.93179862	     -5.58782682
      2.74000000	      6.18249121	     -1.44195785	     -4.53636132	     -0.05252059	      0.93894256	      0.73663403	      9.39190671	     -2.97911141	      0.82542411	    -59.53743771	     -1.85841176	      6.14654006	      3.89188943	      5.03517955	    -10.88863321	    -24.74945081	     22.47616314	    -15.62501546	    -14.35874771	      1.22357178	     -6.15440923
      2.75000000	      6.25969107	     -1.58518333	     -3.79547215	     -0.04342505	      0.94012744	      0.73477851	     10.75064664	     -2.85312297	      0.55906255	    -58.83349911	     -0.67824727	      5.73661195	      2.78830782	      5.03977366	    -10.32433122	    -23.98702201	     22.57982851	    -15.26692204	    -14.43832320	      1.50590594	     -6.69363281
      2.76000000	      6.33108308	     -1.71799308	     -3.04735260	     -0.03434021	      0.94114631	      0.73293787	     12.03227737	     -2.74691211	      0.26225251	    -57.86116908	      0.44105613	      5.33041662	      1.70774056	      5.02798492	     -9.75051448	    -23.24911165	     22.68147048	    -14.93090092	    -14.49733114	      1.77179746	     -7.19739867
      2.77000000	      6.39931221	     -1.83685928	     -2.29649000	     -0.02525160	      0.94198537	      0.73111209	     13.22718972	     -2.66770345	     -0.07051980	    -56.62583008	      1.48198342	      4.94138192	      0.64767328	      5.00645945	     -9.16418536	    -22.53770551	     22.78367822	    -14.64254013	    -14.54137088	      2.01769250	     -7.67153218
      2.78000000	      6.47016576	     -1.93811939	     -1.54725499	     -0.01613898	      0.94263957	      0.72931354	     14.32062918	     -2.61913630	     -0.44036142	    -55.13235671	      2.43928957	      4.57497412	     -0.39805328	      4.97937708	     -8.57345522	    -21.85827509	     22.89466279	    -14.41123783	    -14.57691947	      2.23735546	     -8.12503967
      2.79000000	      6.55095238	     -2.02696122	     -0.81051775	     -0.00695741	      0.94311046	      0.72754632	     15.29638589	     -2.61006761	     -0.88547785	    -53.38167431	      3.30693288	      4.22932969	     -1.44676217	      4.94521973	     -7.98064646	    -21.19962554	     23.01745674	    -14.23919819	    -14.60916657	      2.43290280	     -8.51500241
      2.80000000	      6.64196671	     -2.09857031	     -0.08596313	      0.00229282	      0.94338271	      0.72580735	     16.15059869	     -2.62957581	     -1.38229183	    -51.38568039	      4.06849987	      3.94115397	     -2.49308846	      4.90833242	     -7.39656677	    -20.57428194	     23.16467697	    -14.12708883	    -14.64268372	      2.60420372	     -8.86528177
      2.81000000	      6.69851027	     -2.15303311	      0.63853913	      0.01161527	      0.94335414	      0.72410754	     16.93546982	     -2.67648497	     -1.95047063	    -49.17006571	      4.73354936	      3.83288398	     -3.46305171	      4.86019765	     -6.84553736	    -20.03105324	     23.37675200	    -14.04127505	    -14.62327076	      2.74807133	     -9.20985706
